<?xml version="1.0" encoding="utf-8" standalone="no"?>
<!DOCTYPE svg PUBLIC "-//W3C//DTD SVG 1.1//EN"
  "http://www.w3.org/Graphics/SVG/1.1/DTD/svg11.dtd">
<svg xmlns:xlink="http://www.w3.org/1999/xlink" width="492.3648pt" height="359.253512pt" viewBox="0 0 492.3648 359.253512" xmlns="http://www.w3.org/2000/svg" version="1.1">
 <metadata>
  <rdf:RDF xmlns:dc="http://purl.org/dc/elements/1.1/" xmlns:cc="http://creativecommons.org/ns#" xmlns:rdf="http://www.w3.org/1999/02/22-rdf-syntax-ns#">
   <cc:Work>
    <dc:type rdf:resource="http://purl.org/dc/dcmitype/StillImage"/>
    <dc:format>image/svg+xml</dc:format>
    <dc:creator>
     <cc:Agent>
      <dc:title>thesis_weather_result_package_v1</dc:title>
     </cc:Agent>
    </dc:creator>
   </cc:Work>
  </rdf:RDF>
 </metadata>
 <defs>
  <style type="text/css">*{stroke-linejoin: round; stroke-linecap: butt}</style>
 </defs>
 <g id="figure_1">
  <g id="patch_1">
   <path d="M 0 359.253512 
L 492.3648 359.253512 
L 492.3648 0 
L 0 0 
z
" style="fill: #ffffff"/>
  </g>
  <g id="axes_1">
   <g id="patch_2">
    <path d="M 45.812 334.6832 
L 473.328 334.6832 
L 473.328 82.8432 
L 45.812 82.8432 
z
" style="fill: #ffffff"/>
   </g>
   <g id="matplotlib.axis_1">
    <g id="xtick_1">
     <g id="line2d_1">
      <defs>
       <path id="mc86bd6feed" d="M 0 0 
L 0 3.5 
" style="stroke: #252a34; stroke-width: 0.8"/>
      </defs>
      <g>
       <use xlink:href="#mc86bd6feed" x="151.611414" y="334.6832" style="fill: #252a34; stroke: #252a34; stroke-width: 0.8"/>
      </g>
     </g>
     <g id="text_1">
      <text style="font-size: 10px; font-family: 'Noto Sans JP'; text-anchor: middle; fill: #252a34" x="151.611414" y="349.623825" transform="rotate(-0 151.611414 349.623825)">SUNNY</text>
     </g>
    </g>
    <g id="xtick_2">
     <g id="line2d_2">
      <g>
       <use xlink:href="#mc86bd6feed" x="367.528586" y="334.6832" style="fill: #252a34; stroke: #252a34; stroke-width: 0.8"/>
      </g>
     </g>
     <g id="text_2">
      <text style="font-size: 10px; font-family: 'Noto Sans JP'; text-anchor: middle; fill: #252a34" x="367.528586" y="349.623825" transform="rotate(-0 367.528586 349.623825)">RAIN</text>
     </g>
    </g>
   </g>
   <g id="matplotlib.axis_2">
    <g id="ytick_1">
     <g id="line2d_3">
      <path d="M 45.812 334.6832 
L 473.328 334.6832 
" clip-path="url(#p1978842f4b)" style="fill: none; stroke: #e5e7eb; stroke-width: 0.7; stroke-linecap: square"/>
     </g>
     <g id="line2d_4">
      <defs>
       <path id="m7bf2f1e23b" d="M 0 0 
L -3.5 0 
" style="stroke: #252a34; stroke-width: 0.8"/>
      </defs>
      <g>
       <use xlink:href="#m7bf2f1e23b" x="45.812" y="334.6832" style="fill: #252a34; stroke: #252a34; stroke-width: 0.8"/>
      </g>
     </g>
     <g id="text_3">
      <text style="font-size: 10px; font-family: 'Noto Sans JP'; text-anchor: end; fill: #252a34" x="38.812" y="338.653512" transform="rotate(-0 38.812 338.653512)">0</text>
     </g>
    </g>
    <g id="ytick_2">
     <g id="line2d_5">
      <path d="M 45.812 291.26251 
L 473.328 291.26251 
" clip-path="url(#p1978842f4b)" style="fill: none; stroke: #e5e7eb; stroke-width: 0.7; stroke-linecap: square"/>
     </g>
     <g id="line2d_6">
      <g>
       <use xlink:href="#m7bf2f1e23b" x="45.812" y="291.26251" style="fill: #252a34; stroke: #252a34; stroke-width: 0.8"/>
      </g>
     </g>
     <g id="text_4">
      <text style="font-size: 10px; font-family: 'Noto Sans JP'; text-anchor: end; fill: #252a34" x="38.812" y="295.232823" transform="rotate(-0 38.812 295.232823)">50</text>
     </g>
    </g>
    <g id="ytick_3">
     <g id="line2d_7">
      <path d="M 45.812 247.841821 
L 473.328 247.841821 
" clip-path="url(#p1978842f4b)" style="fill: none; stroke: #e5e7eb; stroke-width: 0.7; stroke-linecap: square"/>
     </g>
     <g id="line2d_8">
      <g>
       <use xlink:href="#m7bf2f1e23b" x="45.812" y="247.841821" style="fill: #252a34; stroke: #252a34; stroke-width: 0.8"/>
      </g>
     </g>
     <g id="text_5">
      <text style="font-size: 10px; font-family: 'Noto Sans JP'; text-anchor: end; fill: #252a34" x="38.812" y="251.812133" transform="rotate(-0 38.812 251.812133)">100</text>
     </g>
    </g>
    <g id="ytick_4">
     <g id="line2d_9">
      <path d="M 45.812 204.421131 
L 473.328 204.421131 
" clip-path="url(#p1978842f4b)" style="fill: none; stroke: #e5e7eb; stroke-width: 0.7; stroke-linecap: square"/>
     </g>
     <g id="line2d_10">
      <g>
       <use xlink:href="#m7bf2f1e23b" x="45.812" y="204.421131" style="fill: #252a34; stroke: #252a34; stroke-width: 0.8"/>
      </g>
     </g>
     <g id="text_6">
      <text style="font-size: 10px; font-family: 'Noto Sans JP'; text-anchor: end; fill: #252a34" x="38.812" y="208.391444" transform="rotate(-0 38.812 208.391444)">150</text>
     </g>
    </g>
    <g id="ytick_5">
     <g id="line2d_11">
      <path d="M 45.812 161.000441 
L 473.328 161.000441 
" clip-path="url(#p1978842f4b)" style="fill: none; stroke: #e5e7eb; stroke-width: 0.7; stroke-linecap: square"/>
     </g>
     <g id="line2d_12">
      <g>
       <use xlink:href="#m7bf2f1e23b" x="45.812" y="161.000441" style="fill: #252a34; stroke: #252a34; stroke-width: 0.8"/>
      </g>
     </g>
     <g id="text_7">
      <text style="font-size: 10px; font-family: 'Noto Sans JP'; text-anchor: end; fill: #252a34" x="38.812" y="164.970754" transform="rotate(-0 38.812 164.970754)">200</text>
     </g>
    </g>
    <g id="ytick_6">
     <g id="line2d_13">
      <path d="M 45.812 117.579752 
L 473.328 117.579752 
" clip-path="url(#p1978842f4b)" style="fill: none; stroke: #e5e7eb; stroke-width: 0.7; stroke-linecap: square"/>
     </g>
     <g id="line2d_14">
      <g>
       <use xlink:href="#m7bf2f1e23b" x="45.812" y="117.579752" style="fill: #252a34; stroke: #252a34; stroke-width: 0.8"/>
      </g>
     </g>
     <g id="text_8">
      <text style="font-size: 10px; font-family: 'Noto Sans JP'; text-anchor: end; fill: #252a34" x="38.812" y="121.550064" transform="rotate(-0 38.812 121.550064)">250</text>
     </g>
    </g>
    <g id="text_9">
     <text style="font-size: 10px; font-family: 'Noto Sans JP'; text-anchor: middle; fill: #252a34" x="16.754188" y="208.7632" transform="rotate(-90 16.754188 208.7632)">担当便数（便）</text>
    </g>
   </g>
   <g id="patch_3">
    <path d="M 65.244545 334.6832 
L 237.978283 334.6832 
L 237.978283 161.868855 
L 65.244545 161.868855 
z
" clip-path="url(#p1978842f4b)" style="fill: #2f6b9a; stroke: #252a34; stroke-width: 0.7; stroke-linejoin: miter"/>
   </g>
   <g id="patch_4">
    <path d="M 281.161717 334.6832 
L 453.895455 334.6832 
L 453.895455 255.657545 
L 281.161717 255.657545 
z
" clip-path="url(#p1978842f4b)" style="fill: #2f6b9a; stroke: #252a34; stroke-width: 0.7; stroke-linejoin: miter"/>
   </g>
   <g id="patch_5">
    <path d="M 65.244545 161.868855 
L 237.978283 161.868855 
L 237.978283 105.421959 
L 65.244545 105.421959 
z
" clip-path="url(#p1978842f4b)" style="fill: #d9822b; stroke: #252a34; stroke-width: 0.7; stroke-linejoin: miter"/>
   </g>
   <g id="patch_6">
    <path d="M 281.161717 255.657545 
L 453.895455 255.657545 
L 453.895455 105.421959 
L 281.161717 105.421959 
z
" clip-path="url(#p1978842f4b)" style="fill: #d9822b; stroke: #252a34; stroke-width: 0.7; stroke-linejoin: miter"/>
   </g>
   <g id="patch_7">
    <path d="M 45.812 334.6832 
L 45.812 82.8432 
" style="fill: none; stroke: #252a34; stroke-width: 0.8; stroke-linejoin: miter; stroke-linecap: square"/>
   </g>
   <g id="patch_8">
    <path d="M 45.812 334.6832 
L 473.328 334.6832 
" style="fill: none; stroke: #252a34; stroke-width: 0.8; stroke-linejoin: miter; stroke-linecap: square"/>
   </g>
   <g id="text_10">
    <text style="font-size: 10px; font-family: 'Noto Sans JP'; text-anchor: middle; fill: #ffffff" x="151.611414" y="251.031496" transform="rotate(-0 151.611414 251.031496)">199便</text>
   </g>
   <g id="text_11">
    <text style="font-size: 10px; font-family: 'Noto Sans JP'; text-anchor: middle; fill: #ffffff" x="367.528586" y="297.925841" transform="rotate(-0 367.528586 297.925841)">91便</text>
   </g>
   <g id="text_12">
    <text style="font-size: 10px; font-family: 'Noto Sans JP'; text-anchor: middle; fill: #252a34" x="151.611414" y="136.400876" transform="rotate(-0 151.611414 136.400876)">65便</text>
   </g>
   <g id="text_13">
    <text style="font-size: 10px; font-family: 'Noto Sans JP'; text-anchor: middle; fill: #252a34" x="367.528586" y="183.29522" transform="rotate(-0 367.528586 183.29522)">173便</text>
   </g>
   <g id="text_14">
    <text style="font-size: 10px; font-family: 'Noto Sans JP'; text-anchor: middle; fill: #252a34" x="151.611414" y="98.474648" transform="rotate(-0 151.611414 98.474648)">264/264便</text>
   </g>
   <g id="text_15">
    <text style="font-size: 10px; font-family: 'Noto Sans JP'; text-anchor: middle; fill: #252a34" x="367.528586" y="98.474648" transform="rotate(-0 367.528586 98.474648)">264/264便</text>
   </g>
   <g id="legend_1">
    <g id="patch_9">
     <path d="M 185.748906 99.783825 
L 205.748906 99.783825 
L 205.748906 92.783825 
L 185.748906 92.783825 
z
" style="fill: #2f6b9a; stroke: #252a34; stroke-width: 0.7; stroke-linejoin: miter"/>
    </g>
    <g id="text_16">
     <text style="font-size: 10px; font-family: 'Noto Sans JP'; text-anchor: start; fill: #252a34" x="213.748906" y="99.783825" transform="rotate(-0 213.748906 99.783825)">BEV担当</text>
    </g>
    <g id="patch_10">
     <path d="M 271.009844 99.783825 
L 291.009844 99.783825 
L 291.009844 92.783825 
L 271.009844 92.783825 
z
" style="fill: #d9822b; stroke: #252a34; stroke-width: 0.7; stroke-linejoin: miter"/>
    </g>
    <g id="text_17">
     <text style="font-size: 10px; font-family: 'Noto Sans JP'; text-anchor: start; fill: #252a34" x="299.009844" y="99.783825" transform="rotate(-0 299.009844 99.783825)">ICE担当</text>
    </g>
   </g>
  </g>
  <g id="patch_11">
   <path d="M 476.352 11.6928 
C 477.176888 11.6928 477.968101 11.456105 478.551385 11.034845 
C 479.134669 10.613584 479.4624 10.042152 479.4624 9.4464 
C 479.4624 8.850648 479.134669 8.279216 478.551385 7.857955 
C 477.968101 7.436695 477.176888 7.2 476.352 7.2 
C 475.527112 7.2 474.735899 7.436695 474.152615 7.857955 
C 473.569331 8.279216 473.2416 8.850648 473.2416 9.4464 
C 473.2416 10.042152 473.569331 10.613584 474.152615 11.034845 
C 474.735899 11.456105 475.527112 11.6928 476.352 11.6928 
z
" style="fill: #afcbe0; stroke: #2f6b9a; stroke-width: 0.5; stroke-linejoin: miter"/>
  </g>
  <g id="patch_12">
   <path d="M 482.0544 14.688 
C 482.879288 14.688 483.670501 14.451305 484.253785 14.030045 
C 484.837069 13.608784 485.1648 13.037352 485.1648 12.4416 
C 485.1648 11.845848 484.837069 11.274416 484.253785 10.853155 
C 483.670501 10.431895 482.879288 10.1952 482.0544 10.1952 
C 481.229512 10.1952 480.438299 10.431895 479.855015 10.853155 
C 479.271731 11.274416 478.944 11.845848 478.944 12.4416 
C 478.944 13.037352 479.271731 13.608784 479.855015 14.030045 
C 480.438299 14.451305 481.229512 14.688 482.0544 14.688 
z
" style="fill: #afcbe0; stroke: #2f6b9a; stroke-width: 0.5; stroke-linejoin: miter"/>
  </g>
  <g id="patch_13">
   <path d="M 479.9808 19.9296 
C 480.805688 19.9296 481.596901 19.692905 482.180185 19.271645 
C 482.763469 18.850384 483.0912 18.278952 483.0912 17.6832 
C 483.0912 17.087448 482.763469 16.516016 482.180185 16.094755 
C 481.596901 15.673495 480.805688 15.4368 479.9808 15.4368 
C 479.155912 15.4368 478.364699 15.673495 477.781415 16.094755 
C 477.198131 16.516016 476.8704 17.087448 476.8704 17.6832 
C 476.8704 18.278952 477.198131 18.850384 477.781415 19.271645 
C 478.364699 19.692905 479.155912 19.9296 479.9808 19.9296 
z
" style="fill: #afcbe0; stroke: #2f6b9a; stroke-width: 0.5; stroke-linejoin: miter"/>
  </g>
  <g id="patch_14">
   <path d="M 472.7232 19.9296 
C 473.548088 19.9296 474.339301 19.692905 474.922585 19.271645 
C 475.505869 18.850384 475.8336 18.278952 475.8336 17.6832 
C 475.8336 17.087448 475.505869 16.516016 474.922585 16.094755 
C 474.339301 15.673495 473.548088 15.4368 472.7232 15.4368 
C 471.898312 15.4368 471.107099 15.673495 470.523815 16.094755 
C 469.940531 16.516016 469.6128 17.087448 469.6128 17.6832 
C 469.6128 18.278952 469.940531 18.850384 470.523815 19.271645 
C 471.107099 19.692905 471.898312 19.9296 472.7232 19.9296 
z
" style="fill: #afcbe0; stroke: #2f6b9a; stroke-width: 0.5; stroke-linejoin: miter"/>
  </g>
  <g id="patch_15">
   <path d="M 470.6496 14.688 
C 471.474488 14.688 472.265701 14.451305 472.848985 14.030045 
C 473.432269 13.608784 473.76 13.037352 473.76 12.4416 
C 473.76 11.845848 473.432269 11.274416 472.848985 10.853155 
C 472.265701 10.431895 471.474488 10.1952 470.6496 10.1952 
C 469.824712 10.1952 469.033499 10.431895 468.450215 10.853155 
C 467.866931 11.274416 467.5392 11.845848 467.5392 12.4416 
C 467.5392 13.037352 467.866931 13.608784 468.450215 14.030045 
C 469.033499 14.451305 469.824712 14.688 470.6496 14.688 
z
" style="fill: #afcbe0; stroke: #2f6b9a; stroke-width: 0.5; stroke-linejoin: miter"/>
  </g>
  <g id="patch_16">
   <path d="M 476.352 15.4368 
C 476.901925 15.4368 477.429401 15.279003 477.818257 14.998163 
C 478.207112 14.717323 478.4256 14.336368 478.4256 13.9392 
C 478.4256 13.542032 478.207112 13.161077 477.818257 12.880237 
C 477.429401 12.599397 476.901925 12.4416 476.352 12.4416 
C 475.802075 12.4416 475.274599 12.599397 474.885743 12.880237 
C 474.496888 13.161077 474.2784 13.542032 474.2784 13.9392 
C 474.2784 14.336368 474.496888 14.717323 474.885743 14.998163 
C 475.274599 15.279003 475.802075 15.4368 476.352 15.4368 
z
" style="fill: #d6a72c; stroke: #252a34; stroke-width: 0.4; stroke-linejoin: miter"/>
  </g>
  <g id="text_18">
   <text style="font-weight: 700; font-size: 15px; font-family: 'Noto Sans JP'; text-anchor: start; fill: #252a34" x="7.2" y="20.234137" transform="rotate(-0 7.2 20.234137)">動力源別担当便数の比較</text>
  </g>
  <g id="text_19">
   <text style="font-size: 9px; font-family: 'Noto Sans JP'; text-anchor: start; fill: #59636e" x="7.2" y="28.9152" transform="rotate(-0 7.2 28.9152)">両ケースとも未担当便0、物理検算VALID</text>
  </g>
 </g>
 <defs>
  <clipPath id="p1978842f4b">
   <rect x="45.812" y="82.8432" width="427.516" height="251.84"/>
  </clipPath>
 </defs>
</svg>
